<svg xmlns="http://www.w3.org/2000/svg" xmlns:xlink="http://www.w3.org/1999/xlink" width="40" height="40"><script xmlns=""/><defs><linearGradient id="c" x1="42.1%" x2="50%" y1="46.99%" y2="59.54%"><stop offset="0%" stop-color="#FFF"/><stop offset="100%" stop-color="#FFF" stop-opacity="0"/></linearGradient><filter id="a" width="244.7%" height="352.6%" x="-72.3%" y="-126.3%" filterUnits="objectBoundingBox"><feMorphology in="SourceAlpha" operator="dilate" radius="1.5" result="shadowSpreadOuter1"/><feOffset in="shadowSpreadOuter1" result="shadowOffsetOuter1"/><feGaussianBlur in="shadowOffsetOuter1" result="shadowBlurOuter1" stdDeviation="3"/><feColorMatrix in="shadowBlurOuter1" values="0 0 0 0 1 0 0 0 0 1 0 0 0 0 1 0 0 0 0.6 0"/></filter><path id="b" d="M20.78 27.62c-5.1-2.4-8.55-5.74-7.72-7.46.82-1.72 5.62-1.18 10.7 1.22 5.1 2.4 8.55 5.73 7.72 7.45-.82 1.73-5.62 1.18-10.7-1.21z"/></defs><g fill="none" fill-rule="evenodd"><path fill="#000" d="M13.8 7.78a13.68 13.68 0 0 0-6.3 6.04c-.93 1.82-1.73 3.93-2.94 5.14C.84 22.87-.83 26.9.4 29.45c2.69 5.61 41.5-12.65 38.8-18.27-1.05-2.2-5.58-3.54-11.35-3.16-1.66-.02-2.78-.5-4.12-.93a13.8 13.8 0 0 0-9.93.7z"/><path fill="#07F" d="M24.08 29.27C34.84 24.2 41.26 15.3 39.52 11.65c-1.75-3.64-12.24-2.99-23 2.08C5.78 18.79-1.18 26.35.57 29.99c1.74 3.65 12.76 4.34 23.52-.72z"/><g transform="matrix(-1 0 0 1 44.54 0)"><use fill="#000" filter="url(#a)" xlink:href="#b"/><use fill="#FFF" xlink:href="#b"/></g><path fill="url(#c)" opacity=".4" d="M13.13 28.88l.08 6.46 14.16-.82 9.4-9.28-5.52-5.27z"/></g></svg>