<?xml version="1.0" encoding="UTF-8"?><svg id="a" xmlns="http://www.w3.org/2000/svg" width="854" height="179" viewBox="0 0 854 179"><path d="m57.71,176.13v-72.67L-.14,7.22h25.03l45.69,78.26L117.01,7.22h20.66l-57.36,95.51v73.4h-22.6Z" style="fill:red;"/><path d="m218.35,176.13c-.65-2.27-1.22-4.94-1.7-8.02-.49-3.08-.89-6.4-1.22-9.96-1.46,2.43-3.2,4.86-5.23,7.29-2.03,2.43-4.5,4.62-7.41,6.56s-6.4,3.52-10.45,4.74c-4.05,1.22-8.75,1.82-14.1,1.82s-10.37-.73-15.07-2.19c-4.7-1.46-8.87-3.65-12.52-6.56-3.65-2.92-6.52-6.48-8.63-10.69-2.11-4.21-3.16-9.07-3.16-14.58,0-13.28,5.31-22.97,15.92-29.04,10.61-6.08,26.29-9.11,47.03-9.11h12.64v-9.9c0-9.82-2.11-17.15-6.32-21.98-4.22-4.83-11.67-7.25-22.36-7.25-7.29,0-13.9,1.31-19.81,3.94-5.92,2.63-11.14,5.77-15.68,9.43l-5.59-17.01c1.94-1.46,4.45-2.92,7.53-4.37,3.08-1.46,6.56-2.75,10.45-3.89,3.89-1.13,8.02-2.07,12.4-2.79,4.38-.73,8.83-1.09,13.37-1.09,15.39,0,27.02,3.36,34.88,10.09,7.86,6.73,11.79,17.38,11.79,31.96v62.95c0,2.76.16,6.2.49,10.33.32,4.13.73,7.25,1.22,9.36h-18.47Zm-35.73-12.15c8.59,0,15.43-2.17,20.54-6.51,5.1-4.34,8.87-9.3,11.3-14.87v-23.34h-10.69c-15.72,0-27.02,1.68-33.9,5.04-6.89,3.36-10.33,9.79-10.33,19.29,0,6.71,2.31,11.79,6.93,15.23s10,5.16,16.16,5.16Z" style="fill:#f2f2f2;"/><path d="m358.59,152.56c-3.89,7.78-9.28,14.06-16.16,18.84-6.89,4.78-15.43,7.17-25.64,7.17-6.81,0-13.49-1.3-20.05-3.89-6.56-2.59-12.44-6.52-17.62-11.79-5.19-5.26-9.36-11.91-12.52-19.93s-4.74-17.38-4.74-28.07,1.58-20.05,4.74-28.07c3.16-8.02,7.33-14.62,12.52-19.81s11.1-9.07,17.74-11.67c6.64-2.59,13.37-3.89,20.17-3.89,9.07,0,17.01,1.82,23.82,5.47,6.81,3.65,12.31,8.87,16.53,15.68V-.07h20.66v176.2h-17.01l-2.43-23.58Zm-38.64,11.42c5.35,0,10.45-.98,15.31-2.93,4.86-1.95,9.15-4.92,12.88-8.91,3.73-3.99,6.68-9.04,8.87-15.14,2.19-6.11,3.28-13.31,3.28-21.62s-1.09-15.51-3.28-21.62c-2.19-6.11-5.15-11.23-8.87-15.39-3.73-4.15-8.02-7.25-12.88-9.28-4.86-2.04-9.96-3.05-15.31-3.05-4.86,0-9.52,1.06-13.97,3.17-4.46,2.12-8.38,5.21-11.79,9.28-3.4,4.07-6.12,9.16-8.14,15.27-2.03,6.11-3.04,13.15-3.04,21.13s1.01,15.31,3.04,21.49c2.02,6.19,4.74,11.32,8.14,15.39,3.4,4.07,7.33,7.12,11.79,9.16,4.45,2.04,9.11,3.05,13.97,3.05Z" style="fill:#f2f2f2;"/><path d="m422.75,35.41c-4.05,0-7.25-1.22-9.6-3.65-2.35-2.43-3.52-5.51-3.52-9.24s1.17-6.88,3.52-9.48c2.35-2.59,5.55-3.89,9.6-3.89s7.05,1.3,9.48,3.89c2.43,2.59,3.65,5.75,3.65,9.48s-1.22,6.81-3.65,9.24c-2.43,2.43-5.59,3.65-9.48,3.65Zm10.45,18.47v122.25h-20.66V53.89h20.66Z" style="fill:#f2f2f2;"/><path d="m515.59,74.3c-4.05.97-7.82,2.51-11.3,4.62-3.49,2.11-6.65,4.7-9.48,7.78-2.84,3.08-5.07,6.48-6.68,10.21v79.23h-20.66V53.89h18.23l1.94,26.49h.49c1.62-3.56,3.68-7.01,6.2-10.33,2.51-3.32,5.43-6.24,8.75-8.75,3.32-2.51,7.05-4.58,11.18-6.2,4.13-1.62,8.71-2.43,13.73-2.43v20.66c-4.21-.32-8.35,0-12.39.97Z" style="fill:#f2f2f2;"/><path d="m645.13,165.68c-4.38,3.73-10.05,6.81-17.01,9.24-6.97,2.43-14.91,3.65-23.82,3.65-19.44,0-34.35-5.55-44.72-16.65-10.37-11.1-15.55-26.77-15.55-47.03,0-9.88,1.46-18.75,4.38-26.61,2.92-7.86,6.93-14.54,12.03-20.05,5.1-5.51,11.1-9.68,17.98-12.52,6.88-2.83,14.3-4.25,22.24-4.25s15.68,1.42,22.24,4.25c6.56,2.84,11.99,7.05,16.28,12.64,4.29,5.59,7.21,12.56,8.75,20.9,1.54,8.35,1.5,17.95-.12,28.8h-82.63c.97,29.01,14.66,43.5,41.07,43.5,6.96,0,13.2-1.01,18.71-3.02,5.51-2.01,10.61-4.57,15.31-7.67l4.86,14.83Zm-44.96-99.65c-8.75,0-16.25,3.1-22.48,9.3-6.24,6.2-10.17,15.58-11.79,28.13h61.98c.97-12.72-1.18-22.14-6.44-28.25-5.27-6.11-12.36-9.17-21.27-9.17Z" style="fill:#f2f2f2;"/><path d="m729.46,178.57c-8.43,0-16.33-1.42-23.7-4.25-7.38-2.83-13.77-7.01-19.2-12.52-5.43-5.51-9.72-12.19-12.88-20.05-3.16-7.86-4.74-16.81-4.74-26.86s1.58-18.75,4.74-26.61c3.16-7.86,7.53-14.54,13.12-20.05,5.59-5.51,12.19-9.68,19.81-12.52,7.61-2.83,15.8-4.25,24.55-4.25,7.29,0,13.85.73,19.69,2.19,5.83,1.46,10.69,3.49,14.58,6.08l-6.08,18.47c-4.7-3.48-9.28-6.17-13.73-8.08-4.46-1.91-9.76-2.86-15.92-2.86-5.35,0-10.45,1.01-15.31,3.03-4.86,2.02-9.08,5.01-12.64,8.97-3.57,3.96-6.4,8.89-8.51,14.79-2.11,5.9-3.16,12.73-3.16,20.48,0,15.84,3.8,27.64,11.42,35.39,7.61,7.76,17.98,11.64,31.11,11.64,4.37,0,9.11-.77,14.22-2.31,5.1-1.53,9.76-3.76,13.97-6.69l4.62,15.31c-4.21,3.24-9.36,5.83-15.43,7.78s-12.92,2.92-20.54,2.92Z" style="fill:#f2f2f2;"/><path d="m842.23,177.21c-3.73.9-7.86,1.36-12.39,1.36-11.51,0-20.01-3.05-25.52-9.15-5.51-6.1-8.26-15.02-8.26-26.73v-74.21h-14.58v-14.58h14.58v-23.33h20.9v23.33h30.62v14.58h-30.62v73.1c0,6.66,1.05,11.66,3.16,14.99,2.1,3.33,5.99,4.99,11.67,4.99,2.75,0,5.59-.32,8.51-.97,2.92-.65,5.51-1.54,7.78-2.67l3.65,15.97c-2.59,1.32-5.75,2.43-9.48,3.33Z" style="fill:#f2f2f2;"/></svg>